<?xml version="1.0" encoding="utf-8"?>
<!-- Generator: Adobe Illustrator 23.0.1, SVG Export Plug-In . SVG Version: 6.00 Build 0)  -->
<svg version="1.2" baseProfile="tiny" id="Layer_1" xmlns="http://www.w3.org/2000/svg" xmlns:xlink="http://www.w3.org/1999/xlink"
	 x="0px" y="0px" viewBox="0 0 379.976196 152.099854" xml:space="preserve">
<path fill="#FFFFFF" d="M303.403595,113.86792l12.029755,16.153275l16.442505,22.078659c0,0,40.129395,0,48.100342,0
	l-32.545044-43.604797c19.216187-9.167603,32.49646-28.771912,32.49646-51.481873C379.927612,25.525635,354.401978,0,322.914429,0
	c-15.490723,0-75.99292,0-75.99292,0h-9.637817v25.083557L259.386719,54.763l15.619751,20.973816
	c-13.318604,0-24.954468,0-28.084961,0h-9.637817v38.131104h-49.415405V0.16626H65.270996
	c-17.287109,0-31.310181,4.47699-41.678711,13.301697C13.0896,22.412231,7.76416,34.11969,7.76416,48.262207
	c0,7.555359,1.390869,14.170471,4.132202,19.656067c2.779663,5.57251,7.102051,10.206299,12.845825,13.771667
	c5.463623,3.39624,11.149048,6.13501,16.898438,8.144226c5.636963,1.975159,12.893311,4.008118,21.582275,6.048584
	c11.295532,2.585266,16.087036,4.595093,18.116943,5.821228c3.103516,1.87677,3.46167,3.707336,3.46167,4.922363
	c0,1.981506,0,7.241577-13.278809,7.241577c-15.662231,0-30.464355-5.499268-43.99707-16.338623l-2.179321-1.74707L0,126.102356
	l2.062012,1.84491c17.931763,16.024719,40.826416,24.152588,68.048706,24.152588
	c17.921509,0,32.494873-4.354675,43.315796-12.938293c11.022705-8.741821,16.61084-20.845276,16.61084-35.968689
	c0-13.5401-4.759766-23.991699-14.147217-31.059265c-8.957031-6.745483-22.6604-12.181458-40.723633-16.158508
	c-9.356934-2.081848-15.635376-4.016357-18.664917-5.751221c-3.139282-1.793152-3.502075-3.822815-3.502075-5.192688
	c0-1.89447,0.7771-3.340576,2.446777-4.549011c1.913696-1.38147,4.879883-2.086548,8.815674-2.086548h78.775879v113.704224h94.24585
	h35.16748h9.637695h0.025391V113.86792H303.403595z M323.046753,75.736816c-0.019775,0-0.044678,0-0.065186,0l-28.146606-37.711853
	c0,0,26.153198-0.000061,28.211792-0.000061c10.413818,0,18.855957,8.442139,18.855957,18.855957
	S333.460571,75.736816,323.046753,75.736816z"/>
</svg>
