<svg
 xmlns="http://www.w3.org/2000/svg"
 xmlns:xlink="http://www.w3.org/1999/xlink"
 width="36px" height="36px">
<path fill-rule="evenodd"  fill="rgb(255, 217, 103)"
 d="M33.337,-0.002 L2.655,-0.002 C1.190,-0.002 -0.000,1.160 -0.000,2.595 L-0.000,33.399 C-0.000,34.832 1.190,35.998 2.655,35.998 L19.228,35.998 L19.228,22.056 L14.538,22.056 L14.538,16.624 L19.231,16.624 L19.231,12.624 C19.231,8.742 21.493,5.817 25.091,5.457 C26.869,5.401 28.650,5.467 30.419,5.656 L30.419,10.516 L27.532,10.516 C26.389,10.516 24.849,10.992 24.849,12.236 C24.849,13.236 24.840,16.546 24.840,16.624 L30.220,16.624 L29.520,22.058 L24.840,22.058 L24.840,35.998 L33.337,35.998 C34.805,35.998 36.000,34.832 36.000,33.399 L36.000,2.595 C36.000,1.160 34.805,-0.002 33.337,-0.002 Z"/>
</svg>
