<svg
 xmlns="http://www.w3.org/2000/svg"
 xmlns:xlink="http://www.w3.org/1999/xlink"
 width="36px" height="36px">
<path fill-rule="evenodd"  fill="rgb(255, 217, 103)"
 d="M33.337,-0.004 L2.655,-0.004 C1.190,-0.004 -0.000,1.159 -0.000,2.592 L-0.000,33.399 C-0.000,34.832 1.190,35.997 2.655,35.997 L33.337,35.997 C34.804,35.997 36.000,34.832 36.000,33.399 L36.000,2.592 C36.000,1.159 34.804,-0.004 33.337,-0.004 ZM10.679,30.672 L5.334,30.672 L5.334,13.493 L10.679,13.493 L10.679,30.672 ZM8.008,11.145 C6.293,11.145 4.910,9.758 4.910,8.049 C4.910,6.340 6.293,4.952 8.008,4.952 C9.716,4.952 11.103,6.340 11.103,8.049 C11.103,9.758 9.716,11.145 8.008,11.145 ZM30.677,30.672 L25.338,30.672 L25.338,22.318 C25.338,20.327 25.304,17.763 22.564,17.763 C19.786,17.763 19.362,19.934 19.362,22.176 L19.362,30.672 L14.028,30.672 L14.028,13.493 L19.147,13.493 L19.147,15.841 L19.220,15.841 C19.932,14.490 21.674,13.067 24.272,13.067 C29.678,13.067 30.677,16.623 30.677,21.250 L30.677,30.672 Z"/>
</svg>
