<svg
 xmlns="http://www.w3.org/2000/svg"
 xmlns:xlink="http://www.w3.org/1999/xlink"
 width="28px" height="28px">
<path fill-rule="evenodd"  fill="rgb(255, 255, 255)"
 d="M5.831,3.499 C5.921,4.831 6.146,6.133 6.505,7.376 L4.708,9.173 C4.095,7.376 3.705,5.475 3.570,3.499 L5.831,3.499 M20.594,21.494 C21.867,21.855 23.169,22.079 24.487,22.169 L24.487,24.399 C22.510,24.266 20.609,23.876 18.797,23.277 L20.594,21.494 M5.840,0.504 L3.884,0.504 C1.877,0.504 0.476,1.913 0.581,3.606 C1.376,16.386 11.599,26.609 24.379,27.405 C26.071,27.509 27.481,26.109 27.481,24.413 L27.481,22.469 C27.481,20.602 26.287,19.301 24.734,19.189 C23.316,19.086 21.937,18.809 20.639,18.381 C20.489,18.321 20.325,18.306 20.175,18.306 C19.786,18.306 19.411,18.455 19.112,18.740 L15.818,22.034 C11.581,19.863 8.107,16.404 5.951,12.167 L9.245,8.874 C9.664,8.454 9.784,7.870 9.619,7.346 C9.190,6.046 8.913,4.673 8.811,3.250 C8.699,1.697 7.396,0.504 5.840,0.504 Z"/>
</svg>
