<svg
 xmlns="http://www.w3.org/2000/svg"
 xmlns:xlink="http://www.w3.org/1999/xlink"
 width="30px" height="24px">
<path fill-rule="evenodd"  fill="rgb(255, 255, 255)"
 d="M30.000,2.998 C30.000,1.348 28.650,-0.002 27.000,-0.002 L3.000,-0.002 C1.350,-0.002 -0.000,1.348 -0.000,2.998 L-0.000,20.999 C-0.000,22.648 1.350,23.999 3.000,23.999 L27.000,23.999 C28.650,23.999 30.000,22.648 30.000,20.999 L30.000,2.998 ZM27.000,2.998 L16.590,9.505 C15.617,10.113 14.383,10.113 13.410,9.505 L3.000,2.998 L27.000,2.998 ZM27.000,20.999 L3.000,20.999 L3.000,5.999 L11.820,11.511 C13.765,12.727 16.234,12.727 18.180,11.511 L27.000,5.999 L27.000,20.999 Z"/>
</svg>
