<?xml version="1.0" encoding="utf-8"?>
<!-- Generator: Adobe Illustrator 23.0.1, SVG Export Plug-In . SVG Version: 6.00 Build 0)  -->
<svg version="1.2" baseProfile="tiny" id="Layer_1" xmlns="http://www.w3.org/2000/svg" xmlns:xlink="http://www.w3.org/1999/xlink"
	 x="0px" y="0px" viewBox="0 0 3000.001465 1208.92627" xml:space="preserve">
<g>
	<path fill="#D1A41E" d="M1784.725098,677.92627c-97.053711-38.481445-190.1875-57.197266-284.723633-57.219727l-0.000488,1v-1
		c-94.536133,0.022461-187.67041,18.738281-284.724121,57.219727c-95.690918,37.939453-192.456055,94.021484-295.825195,171.450195
		C598.526855,1089.831543,297.771973,1206.787598,0.000488,1206.92627l0.000977,2
		c298.219238-0.139648,599.366211-117.225586,920.649414-357.949219
		c205.005859-153.559509,394.512939-228.227417,579.349854-228.270508
		c184.836914,0.043091,374.344482,74.710999,579.350342,228.270508
		c321.283203,240.723633,622.430664,357.80957,920.649414,357.949219v-2
		c-297.770508-0.138672-598.525391-117.094727-919.450195-357.549805
		C1977.181152,771.947754,1880.415527,715.865723,1784.725098,677.92627z"/>
	<path fill="#D1A41E" d="M259.427246,533.979004c86.511719-38.009277,181.378906-96.067871,290.022461-177.492676
		C863.444336,121.313965,1183.255859,2.047363,1500.000977,2c316.744629,0.047363,636.557129,119.313965,950.55127,354.486328
		c108.643555,81.424805,203.510742,139.483398,290.022461,177.492676c90.736328,39.865234,175.594727,59.27832,259.424805,59.347656
		l0.001953-2c-161.15918-0.132813-330.245117-73.053711-548.25-236.440918
		c-157.071289-117.64209-316.901367-207.176758-475.049805-266.116211C1818.713379,29.890137,1658.328613,0.023438,1500.000977,0
		c-158.327637,0.023438-318.712402,29.890137-476.700195,88.769531
		c-158.148438,58.939453-317.978516,148.474121-475.050293,266.116211C330.246094,518.272949,161.159668,591.193848,0,591.32666
		l0.001953,2C83.831543,593.257324,168.69043,573.844238,259.427246,533.979004z"/>
</g>
</svg>
